<svg xmlns="http://www.w3.org/2000/svg" viewBox="0 0 1629.8 794.9"><g id="Layer_2" data-name="Layer 2"><g id="Layer_1-2" data-name="Layer 1"><path d="M430.37,704c-2.78,1.87-5.39,4.11-8.39,5.51-5.3,2.47-10.83,4.46-16.3,6.56q-5,1.91-10.07,3.52c-6,1.9-12.08,3.55-18,5.56-5,1.71-10,3.69-14.91,5.77-1,.44-1.73,1.82-2.4,2.88-3.2,5.08-8.84,1.43-12.87,3.64a66.46,66.46,0,0,1-8.86,4.11c-6.83,2.55-13.75,4.88-20.63,7.3-.31.11-.78.14-.9.36-4.44,8.08-14.26,5-20.24,9.83-6.78,5.42-15.17,5.13-22.93,7.26-5.48,1.5-10.56,5.38-16.4,6.58-5.4,1.11-11,1.21-16.41,2.37-6.62,1.43-13.09,3.59-19.67,5.24-1.69.42-3.55.13-5.34.14-1.32,0-2.92-.5-3.92.07-7.53,4.24-16.78,1.16-23.89,4.93-8.62,4.58-18.41.13-26.41,4.87-7.18,4.25-15.21,3.16-22.78,4.31-4.58.69-9.77-2.12-14.6-3.66-5.16-1.65-10.12-4-15.33-5.41-6.5-1.79-8.21-8.06-12.27-12.11-3.38-3.38-6.61-6.91-10.57-11.07-1.26-1.07-3.42-2.37-4.86-4.23-5.89-7.58-17.29-8.78-21.24-18.52-.55-1.37-1-2.78-1.62-4.13s-1.05-3.36-2-3.64c-6.39-1.9-4.44-6.87-4.39-11.1.06-6.36.18-12.72.44-19.07.22-5.44,1-10.88,1-16.32,0-10.78-.4-21.56-.5-32.35-.06-6.23.06-12.47.26-18.7.25-7.69-2.12-15.16-.32-23.18,1.1-4.86-2-10.57-2.7-16-.44-3.24.31-6.63,0-9.9-.58-6.2-1.67-12.35-2.28-18.55-.26-2.65.41-5.39.23-8.06-.78-11.43-2.11-22.83-2.46-34.26-.22-7.18-1.38-14.57,1.54-21.6a3.38,3.38,0,0,0-.32-2.32c-2.44-5.35-4.62-10.63-3.26-16.83.32-1.49-1.39-3.57-2.45-5.19-1.82-2.8-3.79-5.53-5.87-8.14-.6-.75-1.89-.9-2.76-1.48-2.81-1.88-6.24-3.31-8.21-5.86C19.71,457,15.64,450.4,11.31,444c-.53-.79-1.64-2-1.41-2.38,2.32-4.45-1.31-7.94-1.69-11.9-.33-3.59-.32-7.23-.33-10.85,0-3.78-.25-7.63.34-11.33A31.39,31.39,0,0,1,11.41,398c1.5-2.88,3.9-5.28,5.83-7.94,3.25-4.48,6.44-9,9.66-13.49.29-.41.54-1.07.91-1.15,7.11-1.56,5.63-7.2,5.37-11.89a92.73,92.73,0,0,0-2.08-14.91c-2-8.7-3.29-17.21-1.33-26.26,1-4.75-.47-10.05-.84-15.1a111.74,111.74,0,0,0-.89-11.3c-1.11-6.4-2.62-12.74-4-19.1-.89-4.15-2.74-8.34-2.57-12.44.51-12.72-1.47-25.11-3.4-37.56C16.3,215.45,14.68,204,13.4,192.6c-.77-6.93.18-14.17-1.38-20.86-1.84-7.9-2.18-15.73-2.89-23.68C8.65,142.58,4.74,137.49,3,132c-2.19-7-4.69-14-1.51-21.55.88-2.08.2-4.76.66-7.08C3.73,95.45,8.73,91,16.62,89.58,23.75,88.33,30.9,87.19,38,85.74c2.85-.58,5.52-1.95,8.32-2.77,6.91-2,13.89-3.83,20.77-6,9.43-2.93,18.8-6.07,28.19-9.12a11.13,11.13,0,0,0,3.25-1.24c5.24-4,11.82-3.58,17.65-5.56,4.91-1.67,9.58-4,14.36-6.09,1.45-.62,2.9-1.25,4.4-1.75.6-.2,1.62.23,1.94-.11,5.86-6.24,15.66-3,21.63-9,.78-.78,2.35-.78,3.54-1.17,2-.66,4.25-1,6-2.08,5.4-3.52,10.48-7.28,17.67-5.92,1.76.34,3.87-2,6-2.53,10.39-2.58,20.86-4.87,31.25-7.46,9.63-2.4,19.18-5.13,28.81-7.56a83.88,83.88,0,0,1,8.82-1.4c11.62-1.65,23.21-3.59,34.88-4.82,14.15-1.5,28.36-2.57,42.57-3.5,12-.79,24.07-1.71,36.1-1.51,10.78.19,21.29-1.56,31.93-2.33C417,3,428.09,3.35,439.13,3a70.84,70.84,0,0,0,8.29-1.13c4.41-.67,8.86-2.12,13.23-1.88,13.38.71,26.73,2.06,40.09,3.18,10.21.85,20.53,1,30.59,2.78,10.69,1.85,19.55,8,28.12,14.59,4.19,3.21,9.24,5.36,14,7.69,5.24,2.55,7.4,7.13,5.68,12.66q-2.94,9.47-5.68,19a9.89,9.89,0,0,0-.57,3.92c1.7,12.38-4.14,21-14.29,26.68-8.17,4.58-16.7,9.79-25.65,11.33-7.35,1.26-14.52,4.13-22.73,3.31-10.73-1.08-21.78,1.57-32.71,1.76-11.93.21-23.9-.32-35.82-1-8-.47-16-2-23.81,1.29-1.71.7-3.91.24-5.89.25-11.62.06-23.25-.18-34.85.23-6.76.25-13.46,1.69-20.22,2.29-6.2.54-12.45.6-18.68,1-6,.37-12.1-.39-17.8,3.47-3,2-7.64,1.67-11.53,2.45-4.84,1-9.65,2.14-14.51,3-2.92.49-5.93.38-8.87.73a16.56,16.56,0,0,0-4.64,1.27c-2.24,1-4.23,2.71-6.54,3.43-15.63,4.87-31.31,9.59-47,14.3-5.69,1.71-11.44,3.23-17.12,5-1.05.32-1.88,1.3-2.88,1.85-2.59,1.42-5.14,3.77-7.83,3.95-6.66.44-11.79,3.71-17.43,6.66-6.21,3.25-13.3,4.86-20.09,6.93-9.81,3-13.59,7.17-12.48,17,1.57,14.07,2,28.14,2.94,42.22.69,10.72,2.86,21.34,4.18,32a57.87,57.87,0,0,1-.11,8.32c0,.83-.37,1.78-.08,2.47,4.95,12.08,1.73,25,3.78,37.36,1.43,8.64,1.92,17.44,3.2,26.12a48.38,48.38,0,0,0,3.16,10.32c1.51,3.89,5,5,8.6,4.16,6-1.41,11.91-3.42,17.85-5.18a2.66,2.66,0,0,1,1-.24c11.26,1.42,20.36-5.12,30.43-8.13,6.64-2,13.48-3.3,20.2-5.05,6.37-1.65,12.68-3.56,19.05-5.22,5.84-1.53,11.8-2.6,17.56-4.36,7-2.13,13.8-5,20.83-7.12,6.39-1.88,13-2.95,19.46-4.66,13.2-3.5,26.27-7.51,39.55-10.65,7.81-1.85,15.95-2.31,23.91-3.59,11.52-1.84,23-4,34.53-5.73,5.84-.9,11.84-2.13,17.64-1.66s11.91,1.7,16.53,4.71c5.7,3.73,11.59,3.3,17.53,4.1,4.72.63,9.46,1.35,14.21,1.57,5.86.28,9.85,3.79,13.66,7.47,1,.93,1,3.25.81,4.84-.84,6.5-2.07,12.94-2.93,19.43-1.14,8.53-1.74,17.14-3.25,25.59-.47,2.63-3.09,4.93-4.89,7.26-1.64,2.12-3.51,4.07-4.57,6.59-4.05,2-8.3,3.65-12.12,6-10,6.17-19.74,12.87-29.87,18.87-3.3,2-7.46,2.56-11.29,3.54-6.17,1.57-11.23,5.69-18.19,6-4.77.23-9.22,4.7-14,6.73-7.66,3.22-14.7,8.41-23.61,8-.33,0-.83-.17-1,0-6.38,7.4-17.78,1.8-24.11,9.3a1,1,0,0,1-.43.24c-8.4,2.56-16.85,4.94-25.17,7.72-7.28,2.43-14.25,5.92-21.66,7.78-5.57,1.4-9.82,5.91-16.53,5.21-3.84-.4-8.13,3.37-12.21,5.28-1,.48-2,1.12-3,1.55-6.43,2.66-12.79,5.52-19.35,7.83-2.89,1-6.39.33-9.25,1.4-8,3-15.6,6.85-23.61,9.67a192,192,0,0,1-21.22,5.77c-7.9,1.79-15.33,4.55-17.69,13-1.32,4.75-.61,10.14-.44,15.23.34,10.57.68,21.16,1.48,31.7.91,12,2.36,23.87,3.52,35.81.5,5.11,1,10.23,1.27,15.37.85,15.08,1.9,30.16,2.24,45.26.17,7.22.84,14.11,3.55,20.83,1.67,4.14,7.52,8.93,11.93,8.08,6.95-1.34,13.7-3.72,20.61-5.33,4.73-1.1,9.59-1.65,14.39-2.43,1-.16,2.39.07,2.8-.48,4.26-5.63,11-4.72,16.66-6.74s10.81-5.23,16.37-7.46c4.21-1.69,8.73-2.57,13.06-4,5.64-1.8,11.26-3.7,16.84-5.66,1.37-.49,2.54-1.53,3.9-2.09a65.25,65.25,0,0,1,7.27-2.67c5.25-1.47,10.94-1.75,15.13-6a7.62,7.62,0,0,1,2.63-1.39c8.2-3.29,16.47-6.41,24.59-9.88,3.51-1.49,6.63-3.89,10.1-5.48,1.6-.72,4.2.2,5.39-.78,7-5.74,16.61-6,23.39-10.91,4.93-3.56,10.63-3.24,14.92-6.22,6.16-4.25,13.91-1.44,19.86-5.81a64.83,64.83,0,0,1,10.86-6c3.16-1.51,6.5-2.66,9.8-3.87,5.34-1.95,10.79-3.61,16-5.8,4.32-1.81,8.26-4.53,12.6-6.26,6.61-2.63,13.5-4.55,20.11-7.19,2.5-1,4.34-3.59,6.82-4.72,6.2-2.81,12.59-5.19,18.9-7.75,8.4-3.4,16.72-7,25.2-10.16,9.23-3.46,18.64-6.44,27.9-9.85,3.32-1.22,6.27-3.51,9.63-4.51,6.84-2,13.75-4.29,20.78-5.05,9.82-1.06,19.79-.71,29.68-1.2,5.19-.26,10.62-.19,15.45-1.78,5.3-1.75,7.58-8.43,5.44-13.67a31.34,31.34,0,0,1-2.79-13.31c.14-4.38-2.42-8.83-3.72-13.26-3.31-11.25-5.75-22.83-10.11-33.65-3.69-9.17-4.66-18.73-7.12-28-2.19-8.27-5.57-16.23-8.18-24.4-1.36-4.24-1.91-8.74-3.35-12.94-1.73-5.09-4-10-6.05-15-1.12-2.76-2-5.65-3.36-8.29-4.05-7.85-8.41-15.53-12.42-23.4-6.18-12.14-8-24.72-2.67-37.66,1.22-2.93,3.66-8,4.89-7.8,5.84.88,4.45-7.19,9.75-6.74,4.33.36,8.79-1.15,13.17-1A63.45,63.45,0,0,0,647,262.13c10.61-2.64,21.27-7.13,32.59-4.67,6.33,1.38,12.46,3.61,18.67,5.49,3.31,1,7.1,1.37,9.77,3.28a35.66,35.66,0,0,1,8.46,9.26c2.79,4.18,4.61,9,7.22,13.32,4.34,7.17,11.81,13,19.12,8.55,3.5-2.14,6-5.87,9.15-8.63q10-8.81,20.29-17.3a43.72,43.72,0,0,1,8.7-6.07c5.79-2.77,10.64-7,17.48-8.31,5.34-1,10.1-5.21,15.08-8.07C822,244.15,830,238,838.94,234.7c11.44-4.23,23.36-6.75,35.43.78,4.86,3,11.93,2.64,18,3.6,5.21.81,10.58.86,15.68,2.09,7.7,1.86,15.23,4.45,22.83,6.74,8.33,2.51,16.85,4.56,24.92,7.73,4.73,1.85,9.79,4.39,10.55,10.81.35,3,3.82,4.35,3,8.65-1.75,8.78-4.2,16.87-9.72,24.1a62.87,62.87,0,0,0-8.47,14.18A27.28,27.28,0,0,1,936.68,328,84.56,84.56,0,0,1,914,334.8c-7.73,1.15-13.73,6-21.15,7.81-7.22,1.78-14.21,5.45-20.61,9.41s-12.07,9.22-17.86,14.14c-1.53,1.31-2.46,3.43-3.42,5.3-3.52,6.8-8.87,12.26-11.44,20-2.19,6.64-3.71,13.54-6.18,20-5.87,15.39-6.23,31.3-6.43,47.36-.11,8.15-1.3,16.28-1.23,24.42.08,10.53,1,21.05,1.43,31.58.44,9.61.77,19.23,1.19,28.84.38,8.74.42,17.52,1.33,26.2,1.83,17.49,4.36,34.91,6.19,52.41.87,8.24-.29,16.82,1.47,24.8,1.35,6.08-1.17,10.79-2.1,16-.38,2.17-2.33,4.21-3.93,6-4,4.48-8.07,9-12.45,13.1-3.79,3.56-7.71,7.22-12.2,9.72-5,2.77-10.66,4.31-16.07,6.3-1.53.56-3.93.32-4.63,1.34-3,4.33-8,3.66-11.73,4-6.34.58-13.31.3-19.2-1.85-6.82-2.48-14.37-4.46-19.48-10.48-.63-.74-1.39-1.69-2.23-1.87-9-1.9-14.33-9.3-21.32-14.19-.69-.48-.6-2.06-.88-3.13s-.32-2.79-.85-3c-4.1-1.24-3.76-4.94-5-7.91-2.87-7-7-13.68-9-20.91S694,625.07,693,617.4c-.15-1.15-.09-2.33-.34-3.45q-4.56-20.46-9.19-40.9-1.85-8.1-3.91-16.15c-1.22-4.76-6.32-6.5-11.07-5.09-8.42,2.49-14.66,8.93-16.69,15.77-2.38,8-8.69,12.62-11.83,19.75-2.4,5.42-9.23,9-14.44,13-4.17,3.17-9,5.5-13.29,8.48-4.75,3.27-9,7.38-14,10.21-8,4.52-16.11,9.09-24.73,12-4.41,1.5-6.42,4.27-9.48,6.85-4.67,3.92-10.92,5.94-16.48,8.81-1.07.56-2,1.28-3.07,1.93-2.35,1.52-4.72,3-7,4.59-2,1.37-4,2.83-5.88,4.29a20.06,20.06,0,0,1-2.88,2.39c-5.41,2.71-10.88,5.27-16.32,7.91-.74.35-1.4,1.29-2.07,1.27-7.31-.17-11.52,5.62-17.14,8.69-1.83,1-4.18,1-6,2-3.45,1.81-6.5,4.47-10.07,5.91-7.51,3-15.32,5.28-22.85,8.26-6.42,2.55-12.58,5.75-18.95,8.46-1.54.65-3.44.47-5.17.67Z"/><path d="M1563.93,731.38c-5.13.71-9.86,2.1-14.48,1.81-6-.38-11.88-2.05-17.8-3.27-1.58-.33-3.23-1.76-4.59-1.47-7.67,1.6-14.6-2.12-21.89-2.62-9.36-.64-13.07-7.28-16.21-14.1-2.77-6-3.71-12.86-6-19.13-2.36-6.46-.55-12.47,1.2-18.45,3.17-10.88,5.66-21.79,6.39-33.18.43-6.86,2.82-13.59,3.5-20.46a135.84,135.84,0,0,0,.23-19.77c-.52-11.26-1-22.56-2.3-33.75-1.59-13.74-3.75-27.44-6.12-41.08-1.12-6.5-3.63-12.75-4.86-19.24-1.18-6.21-1.34-12.6-2.31-18.85a31.35,31.35,0,0,0-2.65-7.48c-2.41-5.52-5.1-10.91-7.39-16.47-1.78-4.29-3.12-8.76-4.66-13.15,0-.15,0-.37,0-.49-4-6.52-7.87-13.07-11.94-19.52-2.68-4.23-5.15-8.74-8.54-12.35A145.62,145.62,0,0,0,1426.72,403c-3.09-2.4-7.34-3.34-11.08-4.89a1.62,1.62,0,0,0-1.44.15c-3.28,3.57-7.35,6.76-9.51,10.93-2.66,5.12-3.58,11.12-5.5,16.66-1.23,3.58-3,7-4.36,10.51-1.28,3.3-2.82,6.58-3.46,10-1.31,6.95-1.74,14.07-3.22,21-.76,3.55-3.05,6.76-4.51,10.19a29.7,29.7,0,0,0-1.33,4.67c-1,4.23-1.9,8.5-3.07,12.68-1,3.61-2.79,7-3.47,10.71-1.4,7.51-1.92,15.2-3.51,22.67-1.32,6.2-4,12.12-5.47,18.3-1.83,7.57-3.16,15.27-4.53,22.94-1.2,6.82-2.17,13.68-3.22,20.52-1,6.28-2,12.55-2.84,18.84-1.19,8.9-2.14,17.84-3.37,26.73-.77,5.56-1.88,11.07-2.77,16.61-.18,1.12-.54,2.67,0,3.37,3.27,4.18,1.42,8.42.77,12.8-.93,6.24-1.58,12.54-1.93,18.84-.33,5.77-5,12.68-11,14.73-10.39,3.58-19.76,8.73-27.7,16.49a12.19,12.19,0,0,1-7.11,3.32c-12.13.75-24.4,2.19-36.41,1.12-11.53-1-21.7-6.4-31.11-14.12a46.68,46.68,0,0,1-13.34-17.24c-3.37-7.38-5.84-15.17-8.56-22.84a12,12,0,0,1-.36-4.46c.5-11.78,1.39-23.55,1.49-35.34.08-9.24-.83-18.49-1.22-27.74-.17-4.11-.7-8.32-.11-12.34,1.62-11.11-.71-21.79-2.69-32.55a32.93,32.93,0,0,1,0-4c-.59-9.42-1.42-18.84-1.76-28.27-.34-9.26-.14-18.55-.25-27.82,0-3-.23-5.95-.5-8.92-1.31-14.15-2.84-28.28-3.93-42.45-.54-6.89,1.08-14.23-.79-20.64-1.81-6.25-1.86-12.34-2.59-18.53-1.43-12.05-3-24.08-4.72-36.09-1-7-2.91-13.81-3.67-20.79-1.06-9.73-1.36-19.55-2.15-29.32-.22-2.77-.43-5.78-1.62-8.2-4.92-10.08-3.23-19.62,1.45-29.17a44.18,44.18,0,0,1,18.91-19.94c5.76-3.19,11.83-4.65,17.78-6.73,10.18-3.56,20.55-6.6,30.89-9.7a10.76,10.76,0,0,1,5.79-.4c8.62,2.62,17.78,3.54,25.39,9.33,4.43,3.37,10.09,5.11,14.62,8.38a70.8,70.8,0,0,1,12.13,11.21c7.47,8.67,11.59,10,22.55,6.4,4.38-1.42,9-2,13.39-3.51,5.12-1.76,10.06-4.08,15.07-6.19.59-.25,1.09-1.05,1.64-1.05,10.83-.1,19.55-7.43,30.25-8.52,8.78-.89,17.3-2.76,26,.47,2.72,1,5.88.9,8.84,1.27.82.1,2.05-.31,2.43.11,4.59,5.18,11.33,1.78,16.55,4.25q11.73,5.53,23.37,11.22a24.59,24.59,0,0,1,2.87,1.95c9.17,6.13,18.66,11.85,27.39,18.55,6,4.57,10.84,10.54,16.21,15.87,2.34,2.33,4.84,4.52,7,7,4.08,4.61,8,9.37,12,14.08q5.37,6.38,10.72,12.77c2,2.4,4,4.8,6,7.24,6.69,8.32,14,16.22,19.83,25.13,4.49,6.91,7.22,15,10.41,22.71,3.46,8.34,8.38,16.66,9.28,25.34,1,9.08,8.1,15.67,7.17,25.51-.57,5.91,4.17,12.19,5.8,18.49,1.7,6.54,2.5,13.3,3.75,20,.57,3.05,1.26,6.08,1.91,9.12a8.59,8.59,0,0,1,.53,1.9c-.34,13.64,4,26.58,5.82,39.88,1,7.36.47,14.92.62,22.4,0,1-.43,2.35.06,2.88,4.43,4.85,2.17,11.27,4.08,16.63,2.57,7.16,2.59,14.57,2.42,21.93-.11,5-1.57,10-2.06,15.09-.69,6.94-.28,14.06-1.7,20.83-2,9.6-5.24,19-8,28.4-1.8,6.16-3.62,12.31-5.59,18.41a35.1,35.1,0,0,1-16.26,20.3c-3,1.71-5.28,4.54-8.28,6.13-6.61,3.51-13.55,6.39-20.17,9.89C1565.93,728,1564.88,730.25,1563.93,731.38Z"/><path d="M991.6,339.63c-4.64-.35-3.82-5.49-4.21-8.75a318.24,318.24,0,0,1-2.32-32.05c-.12-6.26,1.37-12.3,7.14-16.58,2.42-1.79,3.15-6.49,5.61-7.49,6.1-2.45,12.72-3.64,19.18-5.14,6-1.41,12-3.05,18.11-3.73,10.69-1.18,21.46-3.22,32.17.09,2.83.88,5.83,1.27,8.54,2.37s4.89,3.71,7.52,4c10.15,1.26,15.74,9.3,22.75,14.94,6.58,5.3,9.92,13.22,12.63,21.23,2,6,4.55,11.77,6.29,17.8,1.2,4.18,1.44,8.63,2.11,13,2.27,14.66,4.44,29.33,6.85,44,1.62,9.79,3.59,19.52,5.36,29.28.21,1.14-.18,2.59.38,3.44,3.52,5.27,1.33,11,1.65,16.5.38,6.91,1.52,13.77,2.05,20.67.34,4.48.08,9,.26,13.49a59.67,59.67,0,0,0,.86,9.36c3.21,16.2,3.75,32.58,3.92,49,.12,11.85.81,23.7,1.15,35.55.18,6.4-.15,12.83.3,19.22.48,6.69,1.46,13.37,2.47,20,2,13.06,3.44,26.14,2,39.35-.45,4.15-3.22,8.16-.54,12.5.3.48-.13,1.68-.57,2.29-6.22,8.65-14.52,15.2-22.13,22.5-6,5.79-13.56,7.75-20.78,10.15s-14.93,2.29-22.55.93a74.32,74.32,0,0,0-11.78-1.35c-7-.12-12.61-3.36-18.2-7-3-2-6.28-3.5-9.43-5.22-.88-.48-2-.72-2.62-1.41-7-7.9-16.77-13.68-19.41-25-1.08-4.61-2.42-9.15-3.48-13.76-1.85-8.06-3.82-16.09-5.26-24.22-1.48-8.29-2.73-16.64-3.44-25-.5-5.95.25-12,0-18-.07-2.41-1.07-4.83-1.85-7.19-3-8.93-.07-18-.54-26.89-.59-11.15-2-22.27-3-33.39,0-.47-.45-1-.32-1.37,4.16-11.68-1-23.2-.62-34.91.85-23.06-2.87-45.89-6.31-68.67-.78-5.15-.5-10.5-1.65-15.55-1.93-8.49-4.86-16.76-6.89-25.23C992,349.05,992.08,344.49,991.6,339.63Z"/><path d="M1114.77,114.17c-.58,7.74-.37,13.53-5.87,16.82a24.16,24.16,0,0,1-8.1,3.2c-9.14,1.57-14.1,7.4-19,14.89-2.74,4.22-6.74,9.63-13.51,10.06-3.43.22-6.81,1.23-10.2,1.92-11.83,2.39-22.69.92-32.27-7.23-3.47-3-7.73-5-11.55-7.58a66.65,66.65,0,0,1-5.4-4.24c-.89-.73-1.53-2-2.52-2.31-8.42-2.9-14.16-8.25-17-16.88-1.37-4.14-3.75-7.94-5.64-11.92-6-12.62-.17-23,6.54-33.05,1.65-2.48,3.26-5.53,5.69-6.83a60,60,0,0,1,14.52-5.38c2.9-.69,6.21.55,9.33.48,6.06-.14,12.23,0,18.13-1.09,6.8-1.32,13.33-4,20-5.89a8.08,8.08,0,0,1,4.82,0c5.65,2.21,11.17,4.75,16.75,7.13,4.15,1.77,8.28,3.6,12.5,5.18,5.58,2.09,9.14,6,13.15,10.48C1114.47,92.26,1113,104.6,1114.77,114.17Z"/></g></g></svg>